<?xml version="1.0" encoding="UTF-8"?>
<svg xmlns="http://www.w3.org/2000/svg" xmlns:xlink="http://www.w3.org/1999/xlink" width="149pt" height="97pt" viewBox="0 0 149 97" version="1.1">
<g id="surface1">
<path style=" stroke:none;fill-rule:nonzero;fill:rgb(90.196078%,90.196078%,90.196078%);fill-opacity:1;" d="M 135.902344 96.753906 L 131.648438 83.851562 C 131.648438 83.851562 136.328125 88.554688 136.328125 92.414062 L 135.488281 83.492188 C 135.488281 83.492188 137.890625 86.746094 137.648438 91.6875 C 137.410156 96.632812 135.902344 96.753906 135.902344 96.753906 Z M 135.902344 96.753906 "/>
<path style=" stroke:none;fill-rule:nonzero;fill:rgb(90.196078%,90.196078%,90.196078%);fill-opacity:1;" d="M 44.515625 85.007812 L 40.363281 72.417969 C 40.363281 72.417969 44.929688 77.003906 44.929688 80.769531 L 44.109375 72.0625 C 44.109375 72.0625 46.453125 75.242188 46.21875 80.066406 C 45.984375 84.886719 44.515625 85.007812 44.515625 85.007812 Z M 44.515625 85.007812 "/>
<path style=" stroke:none;fill-rule:nonzero;fill:rgb(90.196078%,90.196078%,90.196078%);fill-opacity:1;" d="M 109.339844 90.816406 C 109.347656 99.097656 92.996094 96.550781 72.976562 96.566406 C 52.957031 96.585938 36.851562 99.160156 36.84375 90.878906 C 36.835938 82.597656 53.183594 80.78125 73.203125 80.765625 C 93.222656 80.746094 109.332031 82.535156 109.339844 90.816406 Z M 109.339844 90.816406 "/>
<path style=" stroke:none;fill-rule:nonzero;fill:rgb(24.705882%,23.921569%,33.72549%);fill-opacity:1;" d="M 0 96.5625 L 149 96.5625 L 149 96.941406 L 0 96.941406 Z M 0 96.5625 "/>
<path style=" stroke:none;fill-rule:nonzero;fill:rgb(62.745098%,38.039216%,41.568627%);fill-opacity:1;" d="M 95.308594 79.632812 L 92.691406 79.632812 L 91.449219 69.492188 L 95.308594 69.492188 Z M 95.308594 79.632812 "/>
<path style=" stroke:none;fill-rule:nonzero;fill:rgb(18.431373%,18.039216%,25.490196%);fill-opacity:1;" d="M 90.53125 78.878906 L 95.871094 78.878906 L 95.871094 82.074219 L 87.644531 82.074219 L 87.644531 81.78125 C 87.644531 80.179688 88.9375 78.878906 90.53125 78.878906 Z M 90.53125 78.878906 "/>
<path style=" stroke:none;fill-rule:nonzero;fill:rgb(62.745098%,38.039216%,41.568627%);fill-opacity:1;" d="M 114.546875 94.597656 L 111.929688 94.597656 L 110.683594 84.457031 L 114.546875 84.457031 Z M 114.546875 94.597656 "/>
<path style=" stroke:none;fill-rule:nonzero;fill:rgb(18.431373%,18.039216%,25.490196%);fill-opacity:1;" d="M 109.769531 93.847656 L 115.109375 93.847656 L 115.109375 97.039062 L 106.882812 97.039062 L 106.882812 96.746094 C 106.882812 95.144531 108.175781 93.847656 109.769531 93.847656 Z M 109.769531 93.847656 "/>
<path style=" stroke:none;fill-rule:nonzero;fill:rgb(62.745098%,38.039216%,41.568627%);fill-opacity:1;" d="M 126.621094 64.472656 C 126.988281 64.027344 127.136719 63.441406 127.03125 62.871094 C 126.925781 62.304688 126.578125 61.808594 126.074219 61.527344 L 119.996094 36.652344 L 116.109375 38.332031 L 123.339844 62.382812 C 122.910156 63.28125 123.21875 64.359375 124.054688 64.890625 C 124.894531 65.425781 125.996094 65.246094 126.621094 64.472656 Z M 126.621094 64.472656 "/>
<path style=" stroke:none;fill-rule:nonzero;fill:rgb(62.745098%,38.039216%,41.568627%);fill-opacity:1;" d="M 121.878906 14.203125 C 121.441406 13.742188 120.820312 13.5 120.1875 13.539062 C 119.550781 13.582031 118.96875 13.90625 118.59375 14.421875 L 109.1875 15.503906 L 110.617188 19.152344 L 119.175781 17.542969 C 120.097656 18.128906 121.3125 17.929688 122.003906 17.078125 C 122.695312 16.226562 122.640625 14.992188 121.878906 14.203125 Z M 121.878906 14.203125 "/>
<path style=" stroke:none;fill-rule:nonzero;fill:rgb(18.431373%,18.039216%,25.490196%);fill-opacity:1;" d="M 106.375 61.894531 L 110.480469 92.84375 L 115.589844 91.789062 C 115.589844 91.789062 114.839844 69.246094 117.394531 66.527344 C 119.949219 63.8125 114.109375 59.050781 114.109375 59.050781 Z M 106.375 61.894531 "/>
<path style=" stroke:none;fill-rule:nonzero;fill:rgb(18.431373%,18.039216%,25.490196%);fill-opacity:1;" d="M 108.070312 53.367188 L 106.1875 56.210938 C 106.1875 56.210938 91.664062 50.148438 91.664062 59.808594 C 91.664062 69.472656 90.832031 76.027344 90.53125 76.480469 C 90.230469 76.933594 94.007812 78.109375 95.8125 77.808594 C 95.8125 77.808594 98.039062 62.230469 97.886719 61.324219 C 97.886719 61.324219 112.132812 68.339844 114.839844 67.738281 C 117.542969 67.132812 118.183594 64.996094 118.632812 63.789062 C 119.085938 62.578125 118.445312 52.988281 118.445312 52.988281 L 109.429688 50.222656 Z M 108.070312 53.367188 "/>
<path style=" stroke:none;fill-rule:nonzero;fill:rgb(80%,80%,80%);fill-opacity:1;" d="M 108.328125 36.304688 L 107.789062 35.65625 C 107.789062 35.65625 101.769531 22.050781 104.132812 18.378906 C 106.5 14.707031 116.820312 14.164062 117.144531 14.382812 C 117.464844 14.597656 116.371094 17.402344 117.125 18.699219 C 117.125 18.699219 109.128906 20.4375 108.59375 20.65625 C 108.054688 20.871094 112.734375 28.851562 112.734375 28.851562 L 112.199219 33.714844 Z M 108.328125 36.304688 "/>
<path style=" stroke:none;fill-rule:nonzero;fill:rgb(80%,80%,80%);fill-opacity:1;" d="M 118.863281 29.609375 C 118.863281 29.609375 113.273438 30.257812 113.058594 30.257812 C 112.84375 30.257812 112.734375 28.851562 112.734375 28.851562 L 107.789062 35.65625 C 107.789062 35.65625 105.351562 55.398438 105.996094 55.074219 C 106.644531 54.75 118.539062 56.609375 118.648438 55.746094 C 118.757812 54.882812 118.539062 50.5625 118.863281 50.34375 C 119.1875 50.128906 124.453125 36.738281 124.453125 36.738281 C 124.453125 36.738281 123.917969 33.929688 122.089844 32.957031 C 120.261719 31.984375 118.863281 29.609375 118.863281 29.609375 Z M 118.863281 29.609375 "/>
<path style=" stroke:none;fill-rule:nonzero;fill:rgb(80%,80%,80%);fill-opacity:1;" d="M 122.734375 34.902344 L 124.453125 36.738281 C 124.453125 36.738281 127.011719 57.835938 125.613281 58.484375 C 124.214844 59.132812 121.464844 59.050781 121.464844 59.050781 L 118.757812 49.050781 Z M 122.734375 34.902344 "/>
<path style=" stroke:none;fill-rule:nonzero;fill:rgb(62.745098%,38.039216%,41.568627%);fill-opacity:1;" d="M 118.441406 23.300781 C 118.441406 26.046875 116.222656 28.273438 113.492188 28.273438 C 110.757812 28.273438 108.542969 26.046875 108.542969 23.300781 C 108.542969 20.558594 110.757812 18.332031 113.492188 18.332031 C 116.222656 18.332031 118.441406 20.558594 118.441406 23.300781 Z M 118.441406 23.300781 "/>
<path style=" stroke:none;fill-rule:nonzero;fill:rgb(18.431373%,18.039216%,25.490196%);fill-opacity:1;" d="M 112.328125 24.078125 C 112.261719 23.046875 110.96875 23.011719 109.9375 23 C 108.910156 22.992188 107.679688 23.027344 107.097656 22.175781 C 106.710938 21.613281 106.785156 20.832031 107.101562 20.226562 C 107.421875 19.625 107.945312 19.160156 108.457031 18.710938 C 109.785156 17.558594 111.15625 16.414062 112.75 15.675781 C 114.34375 14.9375 116.210938 14.640625 117.867188 15.230469 C 119.898438 15.960938 122.644531 19.707031 122.878906 21.859375 C 123.117188 24.015625 122.261719 26.210938 120.816406 27.820312 C 119.371094 29.425781 116.066406 28.777344 113.988281 29.351562 C 115.253906 27.554688 114.417969 24.285156 112.390625 23.445312 Z M 112.328125 24.078125 "/>
<path style=" stroke:none;fill-rule:nonzero;fill:rgb(54.901961%,100%,38.823529%);fill-opacity:1;" d="M 80.105469 76.445312 C 80.105469 83.035156 74.785156 88.378906 68.222656 88.378906 C 61.664062 88.378906 56.34375 83.035156 56.34375 76.445312 C 56.34375 69.855469 61.664062 64.511719 68.222656 64.511719 C 74.785156 64.511719 80.105469 69.855469 80.105469 76.445312 Z M 80.105469 76.445312 "/>
<path style=" stroke:none;fill-rule:nonzero;fill:rgb(54.901961%,100%,38.823529%);fill-opacity:1;" d="M 60.289062 63.664062 C 56.925781 63.664062 53.878906 61.675781 52.507812 58.589844 L 33.65625 15.945312 C 31.957031 12.09375 32.519531 7.617188 35.121094 4.3125 C 37.71875 1.007812 41.929688 -0.574219 46.050781 0.203125 C 50.171875 0.980469 53.523438 3.988281 54.757812 8.011719 L 68.40625 52.613281 C 69.199219 55.203125 68.722656 58.015625 67.121094 60.195312 C 65.519531 62.375 62.984375 63.660156 60.289062 63.664062 Z M 60.289062 63.664062 "/>
</g>
</svg>
